<?xml version="1.0" encoding="UTF-8" standalone="no"?>
<!-- Created with Inkscape (http://www.inkscape.org/) -->

<svg
   xmlns:dc="http://purl.org/dc/elements/1.1/"
   xmlns:cc="http://creativecommons.org/ns#"
   xmlns:rdf="http://www.w3.org/1999/02/22-rdf-syntax-ns#"
   xmlns:svg="http://www.w3.org/2000/svg"
   xmlns="http://www.w3.org/2000/svg"
   xmlns:sodipodi="http://sodipodi.sourceforge.net/DTD/sodipodi-0.dtd"
   xmlns:inkscape="http://www.inkscape.org/namespaces/inkscape"
   width="193.14583mm"
   height="193.14583mm"
   viewBox="0 0 193.14583 193.14583"
   version="1.1"
   id="svg8"
   inkscape:version="0.92.3 (2405546, 2018-03-11)"
   sodipodi:docname="Card.svg">
  <defs
     id="defs2" />
  <sodipodi:namedview
     id="base"
     pagecolor="#ffffff"
     bordercolor="#666666"
     borderopacity="1.0"
     inkscape:pageopacity="0.0"
     inkscape:pageshadow="2"
     inkscape:zoom="1.4"
     inkscape:cx="366.79484"
     inkscape:cy="262.65693"
     inkscape:document-units="mm"
     inkscape:current-layer="g57"
     showgrid="false"
     fit-margin-top="0"
     fit-margin-left="0"
     fit-margin-right="0"
     fit-margin-bottom="0"
     inkscape:window-width="2736"
     inkscape:window-height="1699"
     inkscape:window-x="-13"
     inkscape:window-y="-13"
     inkscape:window-maximized="1" />
  <metadata
     id="metadata5">
    <rdf:RDF>
      <cc:Work
         rdf:about="">
        <dc:format>image/svg+xml</dc:format>
        <dc:type
           rdf:resource="http://purl.org/dc/dcmitype/StillImage" />
        <dc:title></dc:title>
      </cc:Work>
    </rdf:RDF>
  </metadata>
  <g
     inkscape:label="Capa 1"
     inkscape:groupmode="layer"
     id="layer1"
     transform="translate(-3.212797,-102.15328)">
    <g
       id="g57"
       transform="matrix(0.26458333,0,0,0.26458333,33.271437,116.73753)">
      <g
         id="g38"
         transform="matrix(1.7665505,0,0,1.7665505,-201.2021,-141.95123)">
        <path
           id="path34"
           d="M 327,114 V 81.2 C 327,64.6 313.6,51.1 297,51 H 135 c -16.6,0.1 -30,13.6 -30,30.2 v 267 c 0,16.5 13.4,29.8 29.9,29.8 0,0 0.1,0 0.1,0 h 30 V 163.8 c 0.1,-27.5 22.4,-49.8 49.9,-49.8 0,0 0,0 0.1,0 z"
           inkscape:connector-curvature="0" />
        <path
           id="path36"
           d="M 377,134 H 215 c -16.6,0 -30,13.4 -30,30 v 0 267 c 0,16.6 13.4,30 30,30 v 0 h 162 c 16.6,0 30,-13.4 30,-30 v 0 -267 c 0,-16.6 -13.4,-30 -30,-30 z M 234,262 h 54 c 5.5,0 10,4.5 10,10 0,5.5 -4.5,10 -10,10 h -54 c -5.5,0 -10,-4.5 -10,-10 0,-5.5 4.5,-10 10,-10 z m 124,70 H 234 c -5.5,0 -10,-4.5 -10,-10 0,-5.5 4.5,-10 10,-10 h 124 c 5.5,0 10,4.5 10,10 0,5.5 -4.5,10 -10,10 z"
           inkscape:connector-curvature="0" />
      </g>
    </g>
  </g>
</svg>
