<?xml version="1.0" encoding="UTF-8" standalone="no"?>
<!-- Created with Inkscape (http://www.inkscape.org/) -->

<svg
   xmlns:dc="http://purl.org/dc/elements/1.1/"
   xmlns:cc="http://creativecommons.org/ns#"
   xmlns:rdf="http://www.w3.org/1999/02/22-rdf-syntax-ns#"
   xmlns:svg="http://www.w3.org/2000/svg"
   xmlns="http://www.w3.org/2000/svg"
   xmlns:sodipodi="http://sodipodi.sourceforge.net/DTD/sodipodi-0.dtd"
   xmlns:inkscape="http://www.inkscape.org/namespaces/inkscape"
   width="193.14583mm"
   height="193.14583mm"
   viewBox="0 0 193.14583 193.14583"
   version="1.1"
   id="svg8"
   inkscape:version="0.92.3 (2405546, 2018-03-11)"
   sodipodi:docname="Code.svg">
  <defs
     id="defs2" />
  <sodipodi:namedview
     id="base"
     pagecolor="#ffffff"
     bordercolor="#666666"
     borderopacity="1.0"
     inkscape:pageopacity="0.0"
     inkscape:pageshadow="2"
     inkscape:zoom="1.4"
     inkscape:cx="366.79484"
     inkscape:cy="262.65693"
     inkscape:document-units="mm"
     inkscape:current-layer="g71"
     showgrid="false"
     fit-margin-top="0"
     fit-margin-left="0"
     fit-margin-right="0"
     fit-margin-bottom="0"
     inkscape:window-width="2736"
     inkscape:window-height="1699"
     inkscape:window-x="-13"
     inkscape:window-y="-13"
     inkscape:window-maximized="1" />
  <metadata
     id="metadata5">
    <rdf:RDF>
      <cc:Work
         rdf:about="">
        <dc:format>image/svg+xml</dc:format>
        <dc:type
           rdf:resource="http://purl.org/dc/dcmitype/StillImage" />
        <dc:title></dc:title>
      </cc:Work>
    </rdf:RDF>
  </metadata>
  <g
     inkscape:label="Capa 1"
     inkscape:groupmode="layer"
     id="layer1"
     transform="translate(-3.212797,-102.15328)">
    <g
       id="g57"
       transform="matrix(0.26458333,0,0,0.26458333,33.271437,116.73753)">
      <g
         id="g112"
         transform="matrix(3.3797989,0,0,3.3797989,117.62758,197.44021)">
        <g
           id="g67"
           display="none"
           style="display:none">
          <g
             id="g61"
             display="inline"
             style="display:inline">
            <path
               id="path59"
               d="m 45.655,81.579 c -0.479,1.579 -2.162,2.479 -3.741,2.001 l -3.828,-1.16 c -1.579,-0.479 -2.479,-2.162 -2.001,-3.741 l 18.26,-60.258 c 0.479,-1.579 2.162,-2.479 3.741,-2.001 l 3.828,1.16 c 1.579,0.479 2.479,2.162 2.001,3.741 z"
               inkscape:connector-curvature="0"
               style="fill:#000000" />
          </g>
          <path
             id="path63"
             d="M 18,50 33.413,31.506 c 1.056,-1.268 0.883,-3.169 -0.384,-4.226 l -3.072,-2.561 c -1.268,-1.057 -3.169,-0.884 -4.225,0.384 L 6.263,48.464 c -0.704,0.845 -0.704,2.228 0,3.072 l 19.467,23.36 c 1.056,1.268 2.958,1.44 4.225,0.384 l 3.073,-2.561 c 1.268,-1.057 1.44,-2.958 0.384,-4.226 z"
             display="inline"
             inkscape:connector-curvature="0"
             style="display:inline;fill:#000000" />
          <path
             id="path65"
             d="m 66.588,68.494 c -1.056,1.268 -0.883,3.169 0.384,4.226 l 3.073,2.561 c 1.268,1.057 3.169,0.884 4.225,-0.384 l 19.467,-23.36 c 0.704,-0.845 0.704,-2.228 0,-3.072 L 74.268,25.105 c -1.056,-1.268 -2.958,-1.44 -4.225,-0.384 l -3.072,2.561 c -1.268,1.057 -1.44,2.958 -0.384,4.226 L 82,50 Z"
             display="inline"
             inkscape:connector-curvature="0"
             style="display:inline;fill:#000000" />
        </g>
        <g
           id="g71"
           transform="matrix(2.4180028,0,0,2.4180028,-81.678465,-87.548864)">
          <path
             id="path69"
             d="m 45.742403,81.404195 c -0.479,1.579 -2.162,2.479 -3.741,2.001 l -3.828,-1.16 c -1.579,-0.479 -2.479,-2.162 -2.001,-3.741 l 18.26,-60.258 c 0.479,-1.579 2.162,-2.479 3.741,-2.001 l 3.828,1.16 c 1.579,0.479 2.479,2.162 2.001,3.741 z m -12.243,-13.085 c 1.056,1.268 0.883,3.169 -0.384,4.226 l -3.073,2.561 c -1.268,1.057 -3.169,0.884 -4.225,-0.384 l -19.4670004,-23.361 c -0.704,-0.845 -0.704,-2.228 0,-3.072 l 19.4690004,-23.36 c 1.056,-1.268 2.958,-1.44 4.225,-0.384 l 3.072,2.561 c 1.268,1.057 1.44,2.958 0.384,4.226 l -15.413,18.493 z m 48.588,-18.494 -15.413,-18.494 c -1.056,-1.268 -0.883,-3.169 0.384,-4.226 l 3.072,-2.561 c 1.268,-1.057 3.169,-0.884 4.225,0.384 l 19.469,23.36 c 0.704,0.845 0.704,2.228 0,3.072 l -19.467,23.36 c -1.056,1.268 -2.958,1.44 -4.225,0.384 l -3.073,-2.561 c -1.268,-1.057 -1.44,-2.958 -0.384,-4.226 z"
             inkscape:connector-curvature="0" />
        </g>
        <g
           id="g79"
           display="none"
           style="display:none">
          <polyline
             id="polyline73"
             points="   33,20 8,50 33,80  "
             stroke-miterlimit="10"
             display="inline"
             style="clip-rule:evenodd;display:inline;fill:#000000;fill-rule:evenodd;stroke:#e00c02;stroke-width:4;stroke-miterlimit:10" />
          <polyline
             id="polyline75"
             points="   67,20 92,50 67,80  "
             stroke-miterlimit="10"
             display="inline"
             style="clip-rule:evenodd;display:inline;fill:#000000;fill-rule:evenodd;stroke:#e00c02;stroke-width:4;stroke-miterlimit:10" />
          <line
             id="line77"
             y2="17"
             x2="60"
             y1="83"
             x1="40"
             stroke-miterlimit="10"
             display="inline"
             style="clip-rule:evenodd;display:inline;fill:#000000;fill-rule:evenodd;stroke:#e00c02;stroke-width:4;stroke-miterlimit:10" />
        </g>
        <g
           id="g83"
           display="none"
           style="display:none">
          <path
             id="path81"
             d="M 31.463,81.28 5.396,50 31.463,18.72 34.536,21.281 10.604,50 34.537,78.72 Z M 94.604,50 68.537,18.72 65.463,21.281 89.396,50 65.463,78.72 l 3.074,2.561 z m -32.69,-32.42 -3.828,-1.16 -20,66 3.828,1.16 z"
             display="inline"
             inkscape:connector-curvature="0"
             style="display:inline" />
        </g>
      </g>
    </g>
  </g>
</svg>
