<?xml version="1.0" encoding="UTF-8" standalone="no"?>
<!-- Created with Inkscape (http://www.inkscape.org/) -->

<svg
   xmlns:dc="http://purl.org/dc/elements/1.1/"
   xmlns:cc="http://creativecommons.org/ns#"
   xmlns:rdf="http://www.w3.org/1999/02/22-rdf-syntax-ns#"
   xmlns:svg="http://www.w3.org/2000/svg"
   xmlns="http://www.w3.org/2000/svg"
   xmlns:sodipodi="http://sodipodi.sourceforge.net/DTD/sodipodi-0.dtd"
   xmlns:inkscape="http://www.inkscape.org/namespaces/inkscape"
   width="193.14583mm"
   height="193.14583mm"
   viewBox="0 0 193.14583 193.14583"
   version="1.1"
   id="svg8"
   inkscape:version="0.92.3 (2405546, 2018-03-11)"
   sodipodi:docname="Collage.svg">
  <defs
     id="defs2" />
  <sodipodi:namedview
     id="base"
     pagecolor="#ffffff"
     bordercolor="#666666"
     borderopacity="1.0"
     inkscape:pageopacity="0.0"
     inkscape:pageshadow="2"
     inkscape:zoom="1.4"
     inkscape:cx="481.08055"
     inkscape:cy="260.2511"
     inkscape:document-units="mm"
     inkscape:current-layer="g261"
     showgrid="false"
     fit-margin-top="0"
     fit-margin-left="0"
     fit-margin-right="0"
     fit-margin-bottom="0"
     inkscape:window-width="2736"
     inkscape:window-height="1699"
     inkscape:window-x="-13"
     inkscape:window-y="-13"
     inkscape:window-maximized="1" />
  <metadata
     id="metadata5">
    <rdf:RDF>
      <cc:Work
         rdf:about="">
        <dc:format>image/svg+xml</dc:format>
        <dc:type
           rdf:resource="http://purl.org/dc/dcmitype/StillImage" />
        <dc:title></dc:title>
      </cc:Work>
    </rdf:RDF>
  </metadata>
  <g
     inkscape:label="Capa 1"
     inkscape:groupmode="layer"
     id="layer1"
     transform="translate(-3.212797,-102.15328)">
    <g
       id="g57"
       transform="matrix(0.26458333,0,0,0.26458333,33.271437,116.73753)">
      <g
         id="g112"
         transform="matrix(3.3797989,0,0,3.3797989,117.62758,197.44021)">
        <g
           id="g67"
           display="none"
           style="display:none">
          <g
             id="g61"
             display="inline"
             style="display:inline">
            <path
               id="path59"
               d="m 45.655,81.579 c -0.479,1.579 -2.162,2.479 -3.741,2.001 l -3.828,-1.16 c -1.579,-0.479 -2.479,-2.162 -2.001,-3.741 l 18.26,-60.258 c 0.479,-1.579 2.162,-2.479 3.741,-2.001 l 3.828,1.16 c 1.579,0.479 2.479,2.162 2.001,3.741 z"
               inkscape:connector-curvature="0"
               style="fill:#000000" />
          </g>
          <path
             id="path63"
             d="M 18,50 33.413,31.506 c 1.056,-1.268 0.883,-3.169 -0.384,-4.226 l -3.072,-2.561 c -1.268,-1.057 -3.169,-0.884 -4.225,0.384 L 6.263,48.464 c -0.704,0.845 -0.704,2.228 0,3.072 l 19.467,23.36 c 1.056,1.268 2.958,1.44 4.225,0.384 l 3.073,-2.561 c 1.268,-1.057 1.44,-2.958 0.384,-4.226 z"
             display="inline"
             inkscape:connector-curvature="0"
             style="display:inline;fill:#000000" />
          <path
             id="path65"
             d="m 66.588,68.494 c -1.056,1.268 -0.883,3.169 0.384,4.226 l 3.073,2.561 c 1.268,1.057 3.169,0.884 4.225,-0.384 l 19.467,-23.36 c 0.704,-0.845 0.704,-2.228 0,-3.072 L 74.268,25.105 c -1.056,-1.268 -2.958,-1.44 -4.225,-0.384 l -3.072,2.561 c -1.268,1.057 -1.44,2.958 -0.384,4.226 L 82,50 Z"
             display="inline"
             inkscape:connector-curvature="0"
             style="display:inline;fill:#000000" />
        </g>
        <g
           id="g71"
           transform="matrix(2.4180028,0,0,2.4180028,-81.678465,-87.548864)">
          <g
             id="g146"
             transform="matrix(0.16578621,0,0,0.16578621,9.2179759,-1.9649084)">
            <g
               id="g120"
               transform="matrix(1.3334544,0,0,1.3334544,-93.535933,-28.690262)" />
            <g
               id="g165"
               transform="matrix(3.977437,0,0,3.977437,60.501615,75.491426)">
              <g
                 id="g187"
                 transform="matrix(0.73179633,0,0,0.73179633,-10.139933,30.076737)">
                <g
                   id="g230"
                   transform="matrix(1.6989457,0,0,1.6989457,50.796101,-1.6857825)">
                  <g
                     id="g261"
                     transform="matrix(1.0681614,0,0,1.0681614,-32.966362,-21.874153)">
                    <path
                       id="path232"
                       d="M 94.760823,-6.786956 H 31.680189 a 1.5770159,1.5770159 0 0 0 -1.577015,1.5770158 V 23.176345 a 1.5770159,1.5770159 0 0 0 1.577015,1.577016 h 63.080634 a 1.5770159,1.5770159 0 0 0 1.577016,-1.577016 V -5.2099402 A 1.5770159,1.5770159 0 0 0 94.760823,-6.786956 Z M 93.183808,21.599329 H 33.257205 V -3.6329243 h 59.926603 z"
                       inkscape:connector-curvature="0"
                       style="stroke-width:1.57701588" />
                    <path
                       id="path234"
                       d="M 94.760823,62.601741 H -3.0141589 a 1.5770159,1.5770159 0 0 0 -1.5770159,1.577016 v 28.386286 a 1.5770159,1.5770159 0 0 0 1.5770159,1.577015 H 94.760823 a 1.5770159,1.5770159 0 0 0 1.577016,-1.577015 V 64.178757 A 1.5770159,1.5770159 0 0 0 94.760823,62.601741 Z M 93.183808,90.988027 H -1.4371431 V 65.755773 H 93.183808 Z"
                       inkscape:connector-curvature="0"
                       style="stroke-width:1.57701588" />
                    <path
                       id="path236"
                       d="M -3.0141589,59.44771 H 60.066475 a 1.5770159,1.5770159 0 0 0 1.577016,-1.577016 V 29.484409 A 1.5770159,1.5770159 0 0 0 60.066475,27.907393 H -3.0141589 a 1.5770159,1.5770159 0 0 0 -1.5770159,1.577016 v 28.386285 a 1.5770159,1.5770159 0 0 0 1.5770159,1.577016 z M -1.4371431,31.061424 H 58.489459 V 56.293678 H -1.4371431 Z"
                       inkscape:connector-curvature="0"
                       style="stroke-width:1.57701588" />
                    <path
                       id="path238"
                       d="M -3.0141589,24.753361 H 25.372126 a 1.5770159,1.5770159 0 0 0 1.577016,-1.577016 V -5.2099402 A 1.5770159,1.5770159 0 0 0 25.372126,-6.786956 H -3.0141589 a 1.5770159,1.5770159 0 0 0 -1.5770159,1.5770158 V 23.176345 a 1.5770159,1.5770159 0 0 0 1.5770159,1.577016 z M -1.4371431,-3.6329243 H 23.79511 V 21.599329 H -1.4371431 Z"
                       inkscape:connector-curvature="0"
                       style="stroke-width:1.57701588" />
                    <path
                       id="path240"
                       d="M 94.760823,27.907393 H 66.374538 a 1.5770159,1.5770159 0 0 0 -1.577016,1.577016 v 28.386285 a 1.5770159,1.5770159 0 0 0 1.577016,1.577016 h 28.386285 a 1.5770159,1.5770159 0 0 0 1.577016,-1.577016 V 29.484409 A 1.5770159,1.5770159 0 0 0 94.760823,27.907393 Z M 93.183808,56.293678 H 67.951554 V 31.061424 h 25.232254 z"
                       inkscape:connector-curvature="0"
                       style="stroke-width:1.57701588" />
                  </g>
                </g>
              </g>
            </g>
          </g>
        </g>
        <g
           id="g79"
           display="none"
           style="display:none">
          <polyline
             id="polyline73"
             points="   33,20 8,50 33,80  "
             stroke-miterlimit="10"
             display="inline"
             style="clip-rule:evenodd;display:inline;fill:#000000;fill-rule:evenodd;stroke:#e00c02;stroke-width:4;stroke-miterlimit:10" />
          <polyline
             id="polyline75"
             points="   67,20 92,50 67,80  "
             stroke-miterlimit="10"
             display="inline"
             style="clip-rule:evenodd;display:inline;fill:#000000;fill-rule:evenodd;stroke:#e00c02;stroke-width:4;stroke-miterlimit:10" />
          <line
             id="line77"
             y2="17"
             x2="60"
             y1="83"
             x1="40"
             stroke-miterlimit="10"
             display="inline"
             style="clip-rule:evenodd;display:inline;fill:#000000;fill-rule:evenodd;stroke:#e00c02;stroke-width:4;stroke-miterlimit:10" />
        </g>
        <g
           id="g83"
           display="none"
           style="display:none">
          <path
             id="path81"
             d="M 31.463,81.28 5.396,50 31.463,18.72 34.536,21.281 10.604,50 34.537,78.72 Z M 94.604,50 68.537,18.72 65.463,21.281 89.396,50 65.463,78.72 l 3.074,2.561 z m -32.69,-32.42 -3.828,-1.16 -20,66 3.828,1.16 z"
             display="inline"
             inkscape:connector-curvature="0"
             style="display:inline" />
        </g>
      </g>
    </g>
  </g>
</svg>
