<?xml version="1.0" encoding="UTF-8" standalone="no"?>
<!-- Created with Inkscape (http://www.inkscape.org/) -->

<svg
   xmlns:dc="http://purl.org/dc/elements/1.1/"
   xmlns:cc="http://creativecommons.org/ns#"
   xmlns:rdf="http://www.w3.org/1999/02/22-rdf-syntax-ns#"
   xmlns:svg="http://www.w3.org/2000/svg"
   xmlns="http://www.w3.org/2000/svg"
   xmlns:sodipodi="http://sodipodi.sourceforge.net/DTD/sodipodi-0.dtd"
   xmlns:inkscape="http://www.inkscape.org/namespaces/inkscape"
   width="193.14583mm"
   height="193.14583mm"
   viewBox="0 0 193.14583 193.14583"
   version="1.1"
   id="svg8"
   inkscape:version="0.92.3 (2405546, 2018-03-11)"
   sodipodi:docname="Galery.svg">
  <defs
     id="defs2" />
  <sodipodi:namedview
     id="base"
     pagecolor="#ffffff"
     bordercolor="#666666"
     borderopacity="1.0"
     inkscape:pageopacity="0.0"
     inkscape:pageshadow="2"
     inkscape:zoom="1.4"
     inkscape:cx="481.08055"
     inkscape:cy="262.65693"
     inkscape:document-units="mm"
     inkscape:current-layer="g187"
     showgrid="false"
     fit-margin-top="0"
     fit-margin-left="0"
     fit-margin-right="0"
     fit-margin-bottom="0"
     inkscape:window-width="2736"
     inkscape:window-height="1699"
     inkscape:window-x="-13"
     inkscape:window-y="-13"
     inkscape:window-maximized="1" />
  <metadata
     id="metadata5">
    <rdf:RDF>
      <cc:Work
         rdf:about="">
        <dc:format>image/svg+xml</dc:format>
        <dc:type
           rdf:resource="http://purl.org/dc/dcmitype/StillImage" />
        <dc:title></dc:title>
      </cc:Work>
    </rdf:RDF>
  </metadata>
  <g
     inkscape:label="Capa 1"
     inkscape:groupmode="layer"
     id="layer1"
     transform="translate(-3.212797,-102.15328)">
    <g
       id="g57"
       transform="matrix(0.26458333,0,0,0.26458333,33.271437,116.73753)">
      <g
         id="g112"
         transform="matrix(3.3797989,0,0,3.3797989,117.62758,197.44021)">
        <g
           id="g67"
           display="none"
           style="display:none">
          <g
             id="g61"
             display="inline"
             style="display:inline">
            <path
               id="path59"
               d="m 45.655,81.579 c -0.479,1.579 -2.162,2.479 -3.741,2.001 l -3.828,-1.16 c -1.579,-0.479 -2.479,-2.162 -2.001,-3.741 l 18.26,-60.258 c 0.479,-1.579 2.162,-2.479 3.741,-2.001 l 3.828,1.16 c 1.579,0.479 2.479,2.162 2.001,3.741 z"
               inkscape:connector-curvature="0"
               style="fill:#000000" />
          </g>
          <path
             id="path63"
             d="M 18,50 33.413,31.506 c 1.056,-1.268 0.883,-3.169 -0.384,-4.226 l -3.072,-2.561 c -1.268,-1.057 -3.169,-0.884 -4.225,0.384 L 6.263,48.464 c -0.704,0.845 -0.704,2.228 0,3.072 l 19.467,23.36 c 1.056,1.268 2.958,1.44 4.225,0.384 l 3.073,-2.561 c 1.268,-1.057 1.44,-2.958 0.384,-4.226 z"
             display="inline"
             inkscape:connector-curvature="0"
             style="display:inline;fill:#000000" />
          <path
             id="path65"
             d="m 66.588,68.494 c -1.056,1.268 -0.883,3.169 0.384,4.226 l 3.073,2.561 c 1.268,1.057 3.169,0.884 4.225,-0.384 l 19.467,-23.36 c 0.704,-0.845 0.704,-2.228 0,-3.072 L 74.268,25.105 c -1.056,-1.268 -2.958,-1.44 -4.225,-0.384 l -3.072,2.561 c -1.268,1.057 -1.44,2.958 -0.384,4.226 L 82,50 Z"
             display="inline"
             inkscape:connector-curvature="0"
             style="display:inline;fill:#000000" />
        </g>
        <g
           id="g71"
           transform="matrix(2.4180028,0,0,2.4180028,-81.678465,-87.548864)">
          <g
             id="g146"
             transform="matrix(0.16578621,0,0,0.16578621,9.2179759,-1.9649084)">
            <g
               id="g120"
               transform="matrix(1.3334544,0,0,1.3334544,-93.535933,-28.690262)" />
            <g
               id="g165"
               transform="matrix(3.977437,0,0,3.977437,60.501615,75.491426)">
              <g
                 id="g187"
                 transform="matrix(0.73179633,0,0,0.73179633,-10.139933,30.076737)">
                <g
                   id="g169"
                   transform="matrix(2.0384595,0,0,2.0384595,-24.025242,-2003.3577)">
                  <path
                     id="path167"
                     overflow="visible"
                     display="inline"
                     visibility="visible"
                     marker="none"
                     d="m 31.686293,967.36627 a 3.0001643,3.0001246 0 0 0 -2.687379,2.99983 v 8.99947 h -8.999593 a 3.0001643,3.0001246 0 0 0 -0.312486,0 3.0001643,3.0001246 0 0 0 -2.687378,2.99982 v 8.99948 H 7.9998641 a 3.0001643,3.0001246 0 0 0 -0.3124859,0 3.0001643,3.0001246 0 0 0 -2.6873784,2.99982 v 26.90461 a 3.0001643,3.0001246 0 0 0 0,0.094 v 4.9997 a 3.0001643,3.0001246 0 0 0 0,0.3125 v 7.6871 a 3.0001643,3.0001246 0 0 0 2.9998643,2.9998 H 67.99715 a 3.0001643,3.0001246 0 0 0 2.999864,-2.9998 v -1.7812 a 3.0001643,3.0001246 0 0 0 0,-0.2187 v -3.9998 a 3.0001643,3.0001246 0 0 0 0,-0.2813 v -2.7185 h 8.999593 a 3.0001643,3.0001246 0 0 0 2.999864,-2.9998 v -8.9995 h 8.999593 a 3.0001643,3.0001246 0 0 0 2.999865,-2.9998 v -39.9977 a 3.0001643,3.0001246 0 0 0 -2.999865,-2.99983 H 31.998778 a 3.0001643,3.0001246 0 0 0 -0.312485,0 z m 3.31235,5.99965 H 88.9962 v 33.99808 h -5.999729 v -24.99861 a 3.0001643,3.0001246 0 0 0 0,-0.28123 3.0001643,3.0001246 0 0 0 -2.999864,-2.71859 H 34.998643 Z m -11.999457,11.9993 h 53.997557 v 24.99858 a 3.0001643,3.0001246 0 0 0 0,0.3125 v 8.687 h -5.999729 v -24.99861 a 3.0001643,3.0001246 0 0 0 0,-0.28123 3.0001643,3.0001246 0 0 0 -2.999864,-2.71859 H 22.999186 Z m -11.999458,11.9993 h 53.997558 v 24.06108 l -9.937051,-9.2807 a 3.0001643,3.0001246 0 0 0 -2.218649,-0.7812 3.0001643,3.0001246 0 0 0 -1.874916,0.7812 l -11.593225,10.5307 -14.405598,-12.5931 a 3.0001643,3.0001246 0 0 0 -2.21865,-0.7187 3.0001643,3.0001246 0 0 0 -1.281192,0.4062 l -10.468277,6.2809 z m 28.998689,1.99988 c -4.382546,0 -7.999639,3.617 -7.999639,7.9996 0,4.3824 3.617093,7.9995 7.999639,7.9995 4.382545,0 7.999638,-3.6171 7.999638,-7.9995 0,-4.3826 -3.617093,-7.9996 -7.999638,-7.9996 z m 0,5.9997 c 1.140051,0 1.999909,0.8598 1.999909,1.9999 0,1.14 -0.859858,1.9998 -1.999909,1.9998 -1.140052,0 -1.99991,-0.8598 -1.99991,-1.9998 0,-1.1401 0.859858,-1.9999 1.99991,-1.9999 z m -17.342966,10.6868 12.249446,10.6869 -5.09352,4.6248 H 10.999728 v -4.7811 a 3.0001643,3.0001246 0 0 0 0,-0.2187 v -3.3123 z m 30.311129,2.4061 12.030706,11.2181 v 1.6875 H 38.779722 Z"
                     style="color:#000000;text-indent:0;text-transform:none;direction:ltr;baseline-shift:baseline;display:inline;overflow:visible;visibility:visible;fill:#000000;fill-opacity:1;stroke:none;enable-background:accumulate"
                     inkscape:connector-curvature="0" />
                </g>
              </g>
            </g>
          </g>
        </g>
        <g
           id="g79"
           display="none"
           style="display:none">
          <polyline
             id="polyline73"
             points="   33,20 8,50 33,80  "
             stroke-miterlimit="10"
             display="inline"
             style="clip-rule:evenodd;display:inline;fill:#000000;fill-rule:evenodd;stroke:#e00c02;stroke-width:4;stroke-miterlimit:10" />
          <polyline
             id="polyline75"
             points="   67,20 92,50 67,80  "
             stroke-miterlimit="10"
             display="inline"
             style="clip-rule:evenodd;display:inline;fill:#000000;fill-rule:evenodd;stroke:#e00c02;stroke-width:4;stroke-miterlimit:10" />
          <line
             id="line77"
             y2="17"
             x2="60"
             y1="83"
             x1="40"
             stroke-miterlimit="10"
             display="inline"
             style="clip-rule:evenodd;display:inline;fill:#000000;fill-rule:evenodd;stroke:#e00c02;stroke-width:4;stroke-miterlimit:10" />
        </g>
        <g
           id="g83"
           display="none"
           style="display:none">
          <path
             id="path81"
             d="M 31.463,81.28 5.396,50 31.463,18.72 34.536,21.281 10.604,50 34.537,78.72 Z M 94.604,50 68.537,18.72 65.463,21.281 89.396,50 65.463,78.72 l 3.074,2.561 z m -32.69,-32.42 -3.828,-1.16 -20,66 3.828,1.16 z"
             display="inline"
             inkscape:connector-curvature="0"
             style="display:inline" />
        </g>
      </g>
    </g>
  </g>
</svg>
