<?xml version="1.0" encoding="UTF-8" standalone="no"?>
<!-- Created with Inkscape (http://www.inkscape.org/) -->

<svg
   xmlns:dc="http://purl.org/dc/elements/1.1/"
   xmlns:cc="http://creativecommons.org/ns#"
   xmlns:rdf="http://www.w3.org/1999/02/22-rdf-syntax-ns#"
   xmlns:svg="http://www.w3.org/2000/svg"
   xmlns="http://www.w3.org/2000/svg"
   xmlns:sodipodi="http://sodipodi.sourceforge.net/DTD/sodipodi-0.dtd"
   xmlns:inkscape="http://www.inkscape.org/namespaces/inkscape"
   width="193.14583mm"
   height="193.14583mm"
   viewBox="0 0 193.14583 193.14583"
   version="1.1"
   id="svg8"
   inkscape:version="0.92.3 (2405546, 2018-03-11)"
   sodipodi:docname="Write.svg">
  <defs
     id="defs2" />
  <sodipodi:namedview
     id="base"
     pagecolor="#ffffff"
     bordercolor="#666666"
     borderopacity="1.0"
     inkscape:pageopacity="0.0"
     inkscape:pageshadow="2"
     inkscape:zoom="1.4"
     inkscape:cx="481.08055"
     inkscape:cy="459.89132"
     inkscape:document-units="mm"
     inkscape:current-layer="g495"
     showgrid="false"
     fit-margin-top="0"
     fit-margin-left="0"
     fit-margin-right="0"
     fit-margin-bottom="0"
     inkscape:window-width="2736"
     inkscape:window-height="1699"
     inkscape:window-x="-13"
     inkscape:window-y="-13"
     inkscape:window-maximized="1" />
  <metadata
     id="metadata5">
    <rdf:RDF>
      <cc:Work
         rdf:about="">
        <dc:format>image/svg+xml</dc:format>
        <dc:type
           rdf:resource="http://purl.org/dc/dcmitype/StillImage" />
        <dc:title></dc:title>
      </cc:Work>
    </rdf:RDF>
  </metadata>
  <g
     inkscape:label="Capa 1"
     inkscape:groupmode="layer"
     id="layer1"
     transform="translate(-3.212797,-102.15328)">
    <g
       id="g57"
       transform="matrix(0.26458333,0,0,0.26458333,33.271437,116.73753)">
      <g
         id="g112"
         transform="matrix(3.3797989,0,0,3.3797989,117.62758,197.44021)">
        <g
           id="g67"
           display="none"
           style="display:none">
          <g
             id="g61"
             display="inline"
             style="display:inline">
            <path
               id="path59"
               d="m 45.655,81.579 c -0.479,1.579 -2.162,2.479 -3.741,2.001 l -3.828,-1.16 c -1.579,-0.479 -2.479,-2.162 -2.001,-3.741 l 18.26,-60.258 c 0.479,-1.579 2.162,-2.479 3.741,-2.001 l 3.828,1.16 c 1.579,0.479 2.479,2.162 2.001,3.741 z"
               inkscape:connector-curvature="0"
               style="fill:#000000" />
          </g>
          <path
             id="path63"
             d="M 18,50 33.413,31.506 c 1.056,-1.268 0.883,-3.169 -0.384,-4.226 l -3.072,-2.561 c -1.268,-1.057 -3.169,-0.884 -4.225,0.384 L 6.263,48.464 c -0.704,0.845 -0.704,2.228 0,3.072 l 19.467,23.36 c 1.056,1.268 2.958,1.44 4.225,0.384 l 3.073,-2.561 c 1.268,-1.057 1.44,-2.958 0.384,-4.226 z"
             display="inline"
             inkscape:connector-curvature="0"
             style="display:inline;fill:#000000" />
          <path
             id="path65"
             d="m 66.588,68.494 c -1.056,1.268 -0.883,3.169 0.384,4.226 l 3.073,2.561 c 1.268,1.057 3.169,0.884 4.225,-0.384 l 19.467,-23.36 c 0.704,-0.845 0.704,-2.228 0,-3.072 L 74.268,25.105 c -1.056,-1.268 -2.958,-1.44 -4.225,-0.384 l -3.072,2.561 c -1.268,1.057 -1.44,2.958 -0.384,4.226 L 82,50 Z"
             display="inline"
             inkscape:connector-curvature="0"
             style="display:inline;fill:#000000" />
        </g>
        <g
           id="g71"
           transform="matrix(2.4180028,0,0,2.4180028,-81.678465,-87.548864)">
          <g
             id="g146"
             transform="matrix(0.16578621,0,0,0.16578621,9.2179759,-1.9649084)">
            <g
               id="g120"
               transform="matrix(1.3334544,0,0,1.3334544,-93.535933,-28.690262)" />
            <g
               id="g165"
               transform="matrix(3.977437,0,0,3.977437,60.501615,75.491426)">
              <g
                 id="g187"
                 transform="matrix(0.73179633,0,0,0.73179633,-10.139933,30.076737)">
                <g
                   id="g230"
                   transform="matrix(1.6989457,0,0,1.6989457,50.796101,-1.6857825)">
                  <g
                     id="g261"
                     transform="matrix(1.0681614,0,0,1.0681614,-32.966362,-21.874153)">
                    <g
                       id="g290"
                       transform="matrix(0.64871161,0,0,0.64871161,-4.8317735,2.3688036)">
                      <g
                         id="g337"
                         transform="matrix(0.79214707,0,0,0.79214707,29.544604,44.283331)">
                        <g
                           id="g356"
                           transform="matrix(2.8623219,0,0,2.8623219,42.082071,-67.860777)">
                          <g
                             id="g394"
                             transform="matrix(0.59145473,0,0,0.59145473,-27.631046,-4.8482219)">
                            <g
                               id="g427"
                               transform="matrix(0.67374548,0,0,0.67374548,37.616524,29.043324)">
                              <g
                                 id="g449"
                                 transform="matrix(1.5714431,0,0,1.5714431,-53.54781,-65.497249)">
                                <g
                                   id="g495"
                                   transform="matrix(0.91815254,0,0,0.91815254,7.094506,14.017224)">
                                <g
                                   id="g469"
                                   transform="matrix(2.3879265,0,0,2.3879265,-26.002379,-11.249763)">
                                <g
                                   id="g467">
                                <path
                                   id="path451"
                                   d="M 52,7 H 12 C 9.243,7 7,9.243 7,12 v 40 c 0,2.757 2.243,5 5,5 h 40 c 2.757,0 5,-2.243 5,-5 V 12 C 57,9.243 54.757,7 52,7 Z m 3,45 c 0,1.654 -1.346,3 -3,3 H 12 C 10.346,55 9,53.654 9,52 V 12 c 0,-1.654 1.346,-3 3,-3 h 40 c 1.654,0 3,1.346 3,3 z"
                                   inkscape:connector-curvature="0" />
                                <path
                                   id="path453"
                                   d="m 49.879,23.293 c -0.375,-0.375 -1.039,-0.375 -1.414,0 L 31.494,40.264 c -0.11,0.109 -0.192,0.243 -0.242,0.391 l -1.414,4.242 c -0.12,0.359 -0.026,0.756 0.242,1.023 0.19,0.19 0.446,0.293 0.707,0.293 0.106,0 0.212,-0.017 0.316,-0.052 l 4.242,-1.414 c 0.147,-0.049 0.281,-0.132 0.391,-0.241 L 52.707,27.535 C 52.895,27.348 53,27.093 53,26.828 c 0,-0.265 -0.105,-0.52 -0.293,-0.707 z m -15.39,19.632 -2.121,0.707 0.707,-2.121 16.097,-16.097 1.414,1.414 z"
                                   inkscape:connector-curvature="0" />
                                <path
                                   id="path455"
                                   d="m 16,17 h 32 c 0.553,0 1,-0.448 1,-1 0,-0.552 -0.447,-1 -1,-1 H 16 c -0.552,0 -1,0.448 -1,1 0,0.552 0.448,1 1,1 z"
                                   inkscape:connector-curvature="0" />
                                <path
                                   id="path457"
                                   d="m 16,23 h 28 c 0.553,0 1,-0.448 1,-1 0,-0.552 -0.447,-1 -1,-1 H 16 c -0.552,0 -1,0.448 -1,1 0,0.552 0.448,1 1,1 z"
                                   inkscape:connector-curvature="0" />
                                <path
                                   id="path459"
                                   d="m 16,29 h 22 c 0.553,0 1,-0.448 1,-1 0,-0.552 -0.447,-1 -1,-1 H 16 c -0.552,0 -1,0.448 -1,1 0,0.552 0.448,1 1,1 z"
                                   inkscape:connector-curvature="0" />
                                <path
                                   id="path461"
                                   d="m 16,35 h 16 c 0.552,0 1,-0.447 1,-1 0,-0.553 -0.448,-1 -1,-1 H 16 c -0.552,0 -1,0.447 -1,1 0,0.553 0.448,1 1,1 z"
                                   inkscape:connector-curvature="0" />
                                <path
                                   id="path463"
                                   d="M 28,39 H 16 c -0.552,0 -1,0.447 -1,1 0,0.553 0.448,1 1,1 h 12 c 0.552,0 1,-0.447 1,-1 0,-0.553 -0.448,-1 -1,-1 z"
                                   inkscape:connector-curvature="0" />
                                <path
                                   id="path465"
                                   d="M 26,45 H 16 c -0.552,0 -1,0.447 -1,1 0,0.553 0.448,1 1,1 h 10 c 0.552,0 1,-0.447 1,-1 0,-0.553 -0.448,-1 -1,-1 z"
                                   inkscape:connector-curvature="0" />
                                </g>
                                </g>
                                </g>
                              </g>
                            </g>
                          </g>
                        </g>
                      </g>
                    </g>
                  </g>
                </g>
              </g>
            </g>
          </g>
        </g>
        <g
           id="g79"
           display="none"
           style="display:none">
          <polyline
             id="polyline73"
             points="   33,20 8,50 33,80  "
             stroke-miterlimit="10"
             display="inline"
             style="clip-rule:evenodd;display:inline;fill:#000000;fill-rule:evenodd;stroke:#e00c02;stroke-width:4;stroke-miterlimit:10" />
          <polyline
             id="polyline75"
             points="   67,20 92,50 67,80  "
             stroke-miterlimit="10"
             display="inline"
             style="clip-rule:evenodd;display:inline;fill:#000000;fill-rule:evenodd;stroke:#e00c02;stroke-width:4;stroke-miterlimit:10" />
          <line
             id="line77"
             y2="17"
             x2="60"
             y1="83"
             x1="40"
             stroke-miterlimit="10"
             display="inline"
             style="clip-rule:evenodd;display:inline;fill:#000000;fill-rule:evenodd;stroke:#e00c02;stroke-width:4;stroke-miterlimit:10" />
        </g>
        <g
           id="g83"
           display="none"
           style="display:none">
          <path
             id="path81"
             d="M 31.463,81.28 5.396,50 31.463,18.72 34.536,21.281 10.604,50 34.537,78.72 Z M 94.604,50 68.537,18.72 65.463,21.281 89.396,50 65.463,78.72 l 3.074,2.561 z m -32.69,-32.42 -3.828,-1.16 -20,66 3.828,1.16 z"
             display="inline"
             inkscape:connector-curvature="0"
             style="display:inline" />
        </g>
      </g>
    </g>
  </g>
</svg>
